<?xml version="1.0" encoding="UTF-8" standalone="no"?>
<!DOCTYPE svg PUBLIC "-//W3C//DTD SVG 1.1//EN"
 "http://www.w3.org/Graphics/SVG/1.1/DTD/svg11.dtd">
<!-- Generated by graphviz version 2.42.4 (0)
 -->
<!-- Title: BAITArchitecture Pages: 1 -->
<svg width="1398pt" height="660pt"
 viewBox="0.00 0.00 1398.40 660.15" xmlns="http://www.w3.org/2000/svg" xmlns:xlink="http://www.w3.org/1999/xlink">
<g id="graph0" class="graph" transform="scale(1 1) rotate(0) translate(25.2 634.95)">
<title>BAITArchitecture</title>
<text text-anchor="middle" x="145.5" y="-591.35" font-family="Arial" font-size="18.00" fill="#ddf8ee">BAIT EDR verified component flow</text>
<!-- process -->
<g id="node1" class="node">
<title>process</title>
<path fill="#10231e" stroke="#315c50" stroke-width="1.3" d="M105,-581.75C105,-581.75 12,-581.75 12,-581.75 6,-581.75 0,-575.75 0,-569.75 0,-569.75 0,-551.75 0,-551.75 0,-545.75 6,-539.75 12,-539.75 12,-539.75 105,-539.75 105,-539.75 111,-539.75 117,-545.75 117,-551.75 117,-551.75 117,-569.75 117,-569.75 117,-575.75 111,-581.75 105,-581.75"/>
<text text-anchor="middle" x="58.5" y="-563.95" font-family="Arial" font-size="11.00" fill="#e8fff7">Process snapshots</text>
<text text-anchor="middle" x="58.5" y="-551.95" font-family="Arial" font-size="11.00" fill="#e8fff7">ProcessCollector</text>
</g>
<!-- event -->
<g id="node5" class="node">
<title>event</title>
<path fill="#15372d" stroke="#79f2bd" stroke-width="1.3" d="M362.5,-481.75C362.5,-481.75 204.5,-481.75 204.5,-481.75 198.5,-481.75 192.5,-475.75 192.5,-469.75 192.5,-469.75 192.5,-451.75 192.5,-451.75 192.5,-445.75 198.5,-439.75 204.5,-439.75 204.5,-439.75 362.5,-439.75 362.5,-439.75 368.5,-439.75 374.5,-445.75 374.5,-451.75 374.5,-451.75 374.5,-469.75 374.5,-469.75 374.5,-475.75 368.5,-481.75 362.5,-481.75"/>
<text text-anchor="middle" x="283.5" y="-463.95" font-family="Arial" font-size="11.00" fill="#e8fff7">Normalized EndpointEvent</text>
<text text-anchor="middle" x="283.5" y="-451.95" font-family="Arial" font-size="11.00" fill="#e8fff7">process, file, network, auth, user</text>
</g>
<!-- process&#45;&gt;event -->
<g id="edge1" class="edge">
<title>process&#45;&gt;event</title>
<path fill="none" stroke="#71e7b4" stroke-width="1.25" d="M104.58,-539.68C141.13,-523.76 192.26,-501.49 230.5,-484.83"/>
<polygon fill="#71e7b4" stroke="#71e7b4" stroke-width="1.25" points="231.66,-487.19 237.49,-481.79 229.56,-482.38 231.66,-487.19"/>
</g>
<!-- network -->
<g id="node2" class="node">
<title>network</title>
<path fill="#10231e" stroke="#315c50" stroke-width="1.3" d="M245.5,-581.75C245.5,-581.75 159.5,-581.75 159.5,-581.75 153.5,-581.75 147.5,-575.75 147.5,-569.75 147.5,-569.75 147.5,-551.75 147.5,-551.75 147.5,-545.75 153.5,-539.75 159.5,-539.75 159.5,-539.75 245.5,-539.75 245.5,-539.75 251.5,-539.75 257.5,-545.75 257.5,-551.75 257.5,-551.75 257.5,-569.75 257.5,-569.75 257.5,-575.75 251.5,-581.75 245.5,-581.75"/>
<text text-anchor="middle" x="202.5" y="-563.95" font-family="Arial" font-size="11.00" fill="#e8fff7">TCP snapshots</text>
<text text-anchor="middle" x="202.5" y="-551.95" font-family="Arial" font-size="11.00" fill="#e8fff7">NetworkCollector</text>
</g>
<!-- network&#45;&gt;event -->
<g id="edge2" class="edge">
<title>network&#45;&gt;event</title>
<path fill="none" stroke="#71e7b4" stroke-width="1.25" d="M219.28,-539.44C231.56,-524.6 248.31,-504.32 261.63,-488.2"/>
<polygon fill="#71e7b4" stroke="#71e7b4" stroke-width="1.25" points="263.98,-489.48 266.74,-482.03 259.94,-486.14 263.98,-489.48"/>
<text text-anchor="middle" x="287" y="-508.55" font-family="Arial" font-size="9.00" fill="#b9d9ce">direction = unknown</text>
</g>
<!-- ingest -->
<g id="node3" class="node">
<title>ingest</title>
<path fill="#10231e" stroke="#315c50" stroke-width="1.3" d="M431.5,-581.75C431.5,-581.75 299.5,-581.75 299.5,-581.75 293.5,-581.75 287.5,-575.75 287.5,-569.75 287.5,-569.75 287.5,-551.75 287.5,-551.75 287.5,-545.75 293.5,-539.75 299.5,-539.75 299.5,-539.75 431.5,-539.75 431.5,-539.75 437.5,-539.75 443.5,-545.75 443.5,-551.75 443.5,-551.75 443.5,-569.75 443.5,-569.75 443.5,-575.75 437.5,-581.75 431.5,-581.75"/>
<text text-anchor="middle" x="365.5" y="-563.95" font-family="Arial" font-size="11.00" fill="#e8fff7">External normalized events</text>
<text text-anchor="middle" x="365.5" y="-551.95" font-family="Arial" font-size="11.00" fill="#e8fff7">POST /events</text>
</g>
<!-- ingest&#45;&gt;event -->
<g id="edge3" class="edge">
<title>ingest&#45;&gt;event</title>
<path fill="none" stroke="#71e7b4" stroke-width="1.25" d="M354.33,-539.64C345.8,-524.29 335.5,-505.75 335.5,-505.75 335.5,-505.75 324.82,-496.71 313.14,-486.83"/>
<polygon fill="#71e7b4" stroke="#71e7b4" stroke-width="1.25" points="314.79,-484.79 307.37,-481.95 311.4,-488.8 314.79,-484.79"/>
</g>
<!-- yara -->
<g id="node4" class="node">
<title>yara</title>
<path fill="#10231e" stroke="#315c50" stroke-width="1.3" d="M629.5,-581.75C629.5,-581.75 485.5,-581.75 485.5,-581.75 479.5,-581.75 473.5,-575.75 473.5,-569.75 473.5,-569.75 473.5,-551.75 473.5,-551.75 473.5,-545.75 479.5,-539.75 485.5,-539.75 485.5,-539.75 629.5,-539.75 629.5,-539.75 635.5,-539.75 641.5,-545.75 641.5,-551.75 641.5,-551.75 641.5,-569.75 641.5,-569.75 641.5,-575.75 635.5,-581.75 629.5,-581.75"/>
<text text-anchor="middle" x="557.5" y="-563.95" font-family="Arial" font-size="11.00" fill="#e8fff7">On&#45;demand file inspection</text>
<text text-anchor="middle" x="557.5" y="-551.95" font-family="Arial" font-size="11.00" fill="#e8fff7">FileScanner + optional YARA</text>
</g>
<!-- yara&#45;&gt;event -->
<g id="edge4" class="edge">
<title>yara&#45;&gt;event</title>
<path fill="none" stroke="#71e7b4" stroke-width="1.25" stroke-dasharray="5,2" d="M501.39,-539.68C456.51,-523.63 393.58,-501.12 346.88,-484.42"/>
<polygon fill="#71e7b4" stroke="#71e7b4" stroke-width="1.25" points="347.48,-481.85 339.53,-481.79 345.71,-486.79 347.48,-481.85"/>
<text text-anchor="middle" x="448" y="-508.55" font-family="Arial" font-size="9.00" fill="#b9d9ce">metadata</text>
</g>
<!-- engine -->
<g id="node6" class="node">
<title>engine</title>
<path fill="#1a302a" stroke="#ffe07d" stroke-width="1.3" d="M574.5,-481.75C574.5,-481.75 446.5,-481.75 446.5,-481.75 440.5,-481.75 434.5,-475.75 434.5,-469.75 434.5,-469.75 434.5,-451.75 434.5,-451.75 434.5,-445.75 440.5,-439.75 446.5,-439.75 446.5,-439.75 574.5,-439.75 574.5,-439.75 580.5,-439.75 586.5,-445.75 586.5,-451.75 586.5,-451.75 586.5,-469.75 586.5,-469.75 586.5,-475.75 580.5,-481.75 574.5,-481.75"/>
<text text-anchor="middle" x="510.5" y="-463.95" font-family="Arial" font-size="11.00" fill="#e8fff7">DetectionEngine</text>
<text text-anchor="middle" x="510.5" y="-451.95" font-family="Arial" font-size="11.00" fill="#e8fff7">validated YAML selections</text>
</g>
<!-- event&#45;&gt;engine -->
<g id="edge5" class="edge">
<title>event&#45;&gt;engine</title>
<path fill="none" stroke="#71e7b4" stroke-width="1.25" d="M374.84,-460.75C390.59,-460.75 414.24,-460.75 426.62,-460.75"/>
<polygon fill="#71e7b4" stroke="#71e7b4" stroke-width="1.25" points="426.9,-463.38 434.4,-460.75 426.9,-458.13 426.9,-463.38"/>
</g>
<!-- store -->
<g id="node9" class="node">
<title>store</title>
<path fill="#10231e" stroke="#315c50" stroke-width="1.3" d="M710.5,-376.4C710.5,-379.28 677.78,-381.63 637.5,-381.63 597.22,-381.63 564.5,-379.28 564.5,-376.4 564.5,-376.4 564.5,-329.35 564.5,-329.35 564.5,-326.47 597.22,-324.12 637.5,-324.12 677.78,-324.12 710.5,-326.47 710.5,-329.35 710.5,-329.35 710.5,-376.4 710.5,-376.4"/>
<path fill="none" stroke="#315c50" stroke-width="1.3" d="M710.5,-376.4C710.5,-373.51 677.78,-371.17 637.5,-371.17 597.22,-371.17 564.5,-373.51 564.5,-376.4"/>
<text text-anchor="middle" x="637.5" y="-356.07" font-family="Arial" font-size="11.00" fill="#e8fff7">SQLiteStorage</text>
<text text-anchor="middle" x="637.5" y="-344.07" font-family="Arial" font-size="11.00" fill="#e8fff7">events, alerts, responses</text>
</g>
<!-- event&#45;&gt;store -->
<g id="edge6" class="edge">
<title>event&#45;&gt;store</title>
<path fill="none" stroke="#71e7b4" stroke-width="1.25" d="M350.5,-439.71C409.15,-422.17 494.5,-396.64 556.88,-377.99"/>
<polygon fill="#71e7b4" stroke="#71e7b4" stroke-width="1.25" points="557.93,-380.41 564.37,-375.75 556.43,-375.38 557.93,-380.41"/>
<text text-anchor="middle" x="489.5" y="-408.55" font-family="Arial" font-size="9.00" fill="#b9d9ce">persist source</text>
</g>
<!-- alert -->
<g id="node7" class="node">
<title>alert</title>
<path fill="#18342d" stroke="#79f2bd" stroke-width="1.3" d="M841,-481.75C841,-481.75 658,-481.75 658,-481.75 652,-481.75 646,-475.75 646,-469.75 646,-469.75 646,-451.75 646,-451.75 646,-445.75 652,-439.75 658,-439.75 658,-439.75 841,-439.75 841,-439.75 847,-439.75 853,-445.75 853,-451.75 853,-451.75 853,-469.75 853,-469.75 853,-475.75 847,-481.75 841,-481.75"/>
<text text-anchor="middle" x="749.5" y="-463.95" font-family="Arial" font-size="11.00" fill="#e8fff7">Explainable Alert</text>
<text text-anchor="middle" x="749.5" y="-451.95" font-family="Arial" font-size="11.00" fill="#e8fff7">rule, severity, risk, evidence, ATT&amp;CK</text>
</g>
<!-- engine&#45;&gt;alert -->
<g id="edge7" class="edge">
<title>engine&#45;&gt;alert</title>
<path fill="none" stroke="#71e7b4" stroke-width="1.25" d="M586.74,-460.75C588.92,-460.75 590.17,-460.75 590.17,-460.75 590.17,-460.75 616.01,-460.75 638.26,-460.75"/>
<polygon fill="#71e7b4" stroke="#71e7b4" stroke-width="1.25" points="638.43,-463.38 645.93,-460.75 638.43,-458.13 638.43,-463.38"/>
</g>
<!-- correlate -->
<g id="node8" class="node">
<title>correlate</title>
<path fill="#10231e" stroke="#315c50" stroke-width="1.3" d="M1062,-481.75C1062,-481.75 925,-481.75 925,-481.75 919,-481.75 913,-475.75 913,-469.75 913,-469.75 913,-451.75 913,-451.75 913,-445.75 919,-439.75 925,-439.75 925,-439.75 1062,-439.75 1062,-439.75 1068,-439.75 1074,-445.75 1074,-451.75 1074,-451.75 1074,-469.75 1074,-469.75 1074,-475.75 1068,-481.75 1062,-481.75"/>
<text text-anchor="middle" x="993.5" y="-463.95" font-family="Arial" font-size="11.00" fill="#e8fff7">Correlator</text>
<text text-anchor="middle" x="993.5" y="-451.95" font-family="Arial" font-size="11.00" fill="#e8fff7">bounded recurrence context</text>
</g>
<!-- alert&#45;&gt;correlate -->
<g id="edge8" class="edge">
<title>alert&#45;&gt;correlate</title>
<path fill="none" stroke="#71e7b4" stroke-width="1.25" d="M853.06,-460.75C870.37,-460.75 893.33,-460.75 905.07,-460.75"/>
<polygon fill="#71e7b4" stroke="#71e7b4" stroke-width="1.25" points="905.19,-463.38 912.69,-460.75 905.19,-458.13 905.19,-463.38"/>
</g>
<!-- correlate&#45;&gt;store -->
<g id="edge9" class="edge">
<title>correlate&#45;&gt;store</title>
<path fill="none" stroke="#71e7b4" stroke-width="1.25" d="M926.12,-439.71C867.04,-422.14 781.02,-396.56 718.27,-377.9"/>
<polygon fill="#71e7b4" stroke="#71e7b4" stroke-width="1.25" points="718.67,-375.28 710.73,-375.66 717.18,-380.31 718.67,-375.28"/>
<text text-anchor="middle" x="860.5" y="-408.55" font-family="Arial" font-size="9.00" fill="#b9d9ce">persist alert</text>
</g>
<!-- surfaces -->
<g id="node10" class="node">
<title>surfaces</title>
<path fill="#15372d" stroke="#315c50" stroke-width="1.3" d="M949,-373.88C949,-373.88 802,-373.88 802,-373.88 796,-373.88 790,-367.88 790,-361.88 790,-361.88 790,-343.88 790,-343.88 790,-337.88 796,-331.88 802,-331.88 802,-331.88 949,-331.88 949,-331.88 955,-331.88 961,-337.88 961,-343.88 961,-343.88 961,-361.88 961,-361.88 961,-367.88 955,-373.88 949,-373.88"/>
<text text-anchor="middle" x="875.5" y="-356.07" font-family="Arial" font-size="11.00" fill="#e8fff7">FastAPI + Typer CLI</text>
<text text-anchor="middle" x="875.5" y="-344.07" font-family="Arial" font-size="11.00" fill="#e8fff7">review and response requests</text>
</g>
<!-- store&#45;&gt;surfaces -->
<g id="edge10" class="edge">
<title>store&#45;&gt;surfaces</title>
<path fill="none" stroke="#71e7b4" stroke-width="1.25" d="M718.24,-352.88C738.72,-352.88 760.9,-352.88 781.96,-352.88"/>
<polygon fill="#71e7b4" stroke="#71e7b4" stroke-width="1.25" points="718.03,-350.25 710.53,-352.88 718.03,-355.5 718.03,-350.25"/>
<polygon fill="#71e7b4" stroke="#71e7b4" stroke-width="1.25" points="782.16,-355.5 789.66,-352.88 782.16,-350.25 782.16,-355.5"/>
<text text-anchor="middle" x="750.25" y="-358.68" font-family="Arial" font-size="9.00" fill="#b9d9ce">query / save</text>
</g>
<!-- manager -->
<g id="node11" class="node">
<title>manager</title>
<path fill="#10231e" stroke="#315c50" stroke-width="1.3" d="M1158.5,-373.88C1158.5,-373.88 1064.5,-373.88 1064.5,-373.88 1058.5,-373.88 1052.5,-367.88 1052.5,-361.88 1052.5,-361.88 1052.5,-343.88 1052.5,-343.88 1052.5,-337.88 1058.5,-331.88 1064.5,-331.88 1064.5,-331.88 1158.5,-331.88 1158.5,-331.88 1164.5,-331.88 1170.5,-337.88 1170.5,-343.88 1170.5,-343.88 1170.5,-361.88 1170.5,-361.88 1170.5,-367.88 1164.5,-373.88 1158.5,-373.88"/>
<text text-anchor="middle" x="1111.5" y="-356.07" font-family="Arial" font-size="11.00" fill="#e8fff7">ResponseManager</text>
<text text-anchor="middle" x="1111.5" y="-344.07" font-family="Arial" font-size="11.00" fill="#e8fff7">action dispatch</text>
</g>
<!-- surfaces&#45;&gt;manager -->
<g id="edge11" class="edge">
<title>surfaces&#45;&gt;manager</title>
<path fill="none" stroke="#71e7b4" stroke-width="1.25" d="M961.04,-352.88C988.65,-352.88 1018.84,-352.88 1044.87,-352.88"/>
<polygon fill="#71e7b4" stroke="#71e7b4" stroke-width="1.25" points="1044.96,-355.5 1052.46,-352.88 1044.96,-350.25 1044.96,-355.5"/>
<text text-anchor="middle" x="1006.75" y="-358.68" font-family="Arial" font-size="9.00" fill="#b9d9ce">explicit request</text>
</g>
<!-- policy -->
<g id="node12" class="node">
<title>policy</title>
<path fill="#342f19" stroke="#ffe07d" stroke-width="1.3" d="M1083.95,-271.74C1083.95,-271.74 958.05,-236.26 958.05,-236.26 952.27,-234.63 952.27,-231.37 958.05,-229.74 958.05,-229.74 1083.95,-194.26 1083.95,-194.26 1089.73,-192.63 1101.27,-192.63 1107.05,-194.26 1107.05,-194.26 1232.95,-229.74 1232.95,-229.74 1238.73,-231.37 1238.73,-234.63 1232.95,-236.26 1232.95,-236.26 1107.05,-271.74 1107.05,-271.74 1101.27,-273.37 1089.73,-273.37 1083.95,-271.74"/>
<text text-anchor="middle" x="1095.5" y="-236.2" font-family="Arial" font-size="11.00" fill="#e8fff7">ResponsePolicy</text>
<text text-anchor="middle" x="1095.5" y="-224.2" font-family="Arial" font-size="11.00" fill="#e8fff7">audit or active + allowlists</text>
</g>
<!-- manager&#45;&gt;policy -->
<g id="edge12" class="edge">
<title>manager&#45;&gt;policy</title>
<path fill="none" stroke="#71e7b4" stroke-width="1.25" d="M1108.75,-331.61C1106.86,-317.67 1104.26,-298.57 1101.87,-280.95"/>
<polygon fill="#71e7b4" stroke="#71e7b4" stroke-width="1.25" points="1104.47,-280.59 1100.86,-273.52 1099.27,-281.3 1104.47,-280.59"/>
</g>
<!-- planned -->
<g id="node13" class="node">
<title>planned</title>
<path fill="#242b27" stroke="#315c50" stroke-width="1.3" d="M842.5,-133C842.5,-133 740.5,-133 740.5,-133 734.5,-133 728.5,-127 728.5,-121 728.5,-121 728.5,-103 728.5,-103 728.5,-97 734.5,-91 740.5,-91 740.5,-91 842.5,-91 842.5,-91 848.5,-91 854.5,-97 854.5,-103 854.5,-103 854.5,-121 854.5,-121 854.5,-127 848.5,-133 842.5,-133"/>
<text text-anchor="middle" x="791.5" y="-115.2" font-family="Arial" font-size="11.00" fill="#e8fff7">Recorded plan</text>
<text text-anchor="middle" x="791.5" y="-103.2" font-family="Arial" font-size="11.00" fill="#e8fff7">no disruptive change</text>
</g>
<!-- policy&#45;&gt;planned -->
<g id="edge13" class="edge">
<title>policy&#45;&gt;planned</title>
<path fill="none" stroke="#71e7b4" stroke-width="1.25" d="M1034.35,-208.06C980.69,-187.06 903.19,-156.72 850.26,-136"/>
<polygon fill="#71e7b4" stroke="#71e7b4" stroke-width="1.25" points="850.9,-133.43 842.96,-133.14 848.99,-138.32 850.9,-133.43"/>
<text text-anchor="middle" x="956" y="-159.8" font-family="Arial" font-size="9.00" fill="#b9d9ce">audit / disabled</text>
</g>
<!-- safe -->
<g id="node14" class="node">
<title>safe</title>
<path fill="#15372d" stroke="#315c50" stroke-width="1.3" d="M984,-133C984,-133 897,-133 897,-133 891,-133 885,-127 885,-121 885,-121 885,-103 885,-103 885,-97 891,-91 897,-91 897,-91 984,-91 984,-91 990,-91 996,-97 996,-103 996,-103 996,-121 996,-121 996,-127 990,-133 984,-133"/>
<text text-anchor="middle" x="940.5" y="-115.2" font-family="Arial" font-size="11.00" fill="#e8fff7">Low&#45;regret action</text>
<text text-anchor="middle" x="940.5" y="-103.2" font-family="Arial" font-size="11.00" fill="#e8fff7">collect triage</text>
</g>
<!-- policy&#45;&gt;safe -->
<g id="edge14" class="edge">
<title>policy&#45;&gt;safe</title>
<path fill="none" stroke="#71e7b4" stroke-width="1.25" d="M1056.39,-201.97C1030.59,-182.17 997.21,-156.54 972.9,-137.87"/>
<polygon fill="#71e7b4" stroke="#71e7b4" stroke-width="1.25" points="974.47,-135.77 966.93,-133.29 971.28,-139.94 974.47,-135.77"/>
<text text-anchor="middle" x="1038" y="-159.8" font-family="Arial" font-size="9.00" fill="#b9d9ce">non&#45;disruptive</text>
</g>
<!-- active -->
<g id="node15" class="node">
<title>active</title>
<path fill="#3a241f" stroke="#ff9c7d" stroke-width="1.3" d="M1152.5,-133C1152.5,-133 1038.5,-133 1038.5,-133 1032.5,-133 1026.5,-127 1026.5,-121 1026.5,-121 1026.5,-103 1026.5,-103 1026.5,-97 1032.5,-91 1038.5,-91 1038.5,-91 1152.5,-91 1152.5,-91 1158.5,-91 1164.5,-97 1164.5,-103 1164.5,-103 1164.5,-121 1164.5,-121 1164.5,-127 1158.5,-133 1152.5,-133"/>
<text text-anchor="middle" x="1095.5" y="-115.2" font-family="Arial" font-size="11.00" fill="#e8fff7">Policy&#45;approved action</text>
<text text-anchor="middle" x="1095.5" y="-103.2" font-family="Arial" font-size="11.00" fill="#e8fff7">terminate or quarantine</text>
</g>
<!-- policy&#45;&gt;active -->
<g id="edge15" class="edge">
<title>policy&#45;&gt;active</title>
<path fill="none" stroke="#71e7b4" stroke-width="1.25" d="M1095.5,-190.71C1095.5,-174.29 1095.5,-155.81 1095.5,-141"/>
<polygon fill="#71e7b4" stroke="#71e7b4" stroke-width="1.25" points="1098.13,-140.68 1095.5,-133.18 1092.88,-140.68 1098.13,-140.68"/>
<text text-anchor="middle" x="1127.5" y="-159.8" font-family="Arial" font-size="9.00" fill="#b9d9ce">active + verified</text>
</g>
<!-- external -->
<g id="node16" class="node">
<title>external</title>
<path fill="#242b27" stroke="#315c50" stroke-width="1.3" d="M1336,-133C1336,-133 1207,-133 1207,-133 1201,-133 1195,-127 1195,-121 1195,-121 1195,-103 1195,-103 1195,-97 1201,-91 1207,-91 1207,-91 1336,-91 1336,-91 1342,-91 1348,-97 1348,-103 1348,-103 1348,-121 1348,-121 1348,-127 1342,-133 1336,-133"/>
<text text-anchor="middle" x="1271.5" y="-115.2" font-family="Arial" font-size="11.00" fill="#e8fff7">External enforcement plan</text>
<text text-anchor="middle" x="1271.5" y="-103.2" font-family="Arial" font-size="11.00" fill="#e8fff7">isolation or indicator block</text>
</g>
<!-- policy&#45;&gt;external -->
<g id="edge16" class="edge">
<title>policy&#45;&gt;external</title>
<path fill="none" stroke="#71e7b4" stroke-width="1.25" d="M1138.55,-202.89C1168.23,-182.82 1207.23,-156.45 1235.31,-137.47"/>
<polygon fill="#71e7b4" stroke="#71e7b4" stroke-width="1.25" points="1237.09,-139.43 1241.84,-133.06 1234.15,-135.08 1237.09,-139.43"/>
<text text-anchor="middle" x="1238" y="-159.8" font-family="Arial" font-size="9.00" fill="#b9d9ce">not implemented</text>
</g>
<!-- result -->
<g id="node17" class="node">
<title>result</title>
<path fill="#15372d" stroke="#79f2bd" stroke-width="1.3" d="M984,-42C984,-42 897,-42 897,-42 891,-42 885,-36 885,-30 885,-30 885,-12 885,-12 885,-6 891,0 897,0 897,0 984,0 984,0 990,0 996,-6 996,-12 996,-12 996,-30 996,-30 996,-36 990,-42 984,-42"/>
<text text-anchor="middle" x="940.5" y="-24.2" font-family="Arial" font-size="11.00" fill="#e8fff7">ResponseResult</text>
<text text-anchor="middle" x="940.5" y="-12.2" font-family="Arial" font-size="11.00" fill="#e8fff7">status + evidence</text>
</g>
<!-- planned&#45;&gt;result -->
<g id="edge17" class="edge">
<title>planned&#45;&gt;result</title>
<path fill="none" stroke="#71e7b4" stroke-width="1.25" d="M825.31,-90.8C847.6,-77.49 876.9,-59.99 900.37,-45.97"/>
<polygon fill="#71e7b4" stroke="#71e7b4" stroke-width="1.25" points="901.73,-48.22 906.82,-42.12 899.04,-43.71 901.73,-48.22"/>
</g>
<!-- safe&#45;&gt;result -->
<g id="edge18" class="edge">
<title>safe&#45;&gt;result</title>
<path fill="none" stroke="#71e7b4" stroke-width="1.25" d="M940.5,-90.8C940.5,-78.63 940.5,-62.95 940.5,-49.64"/>
<polygon fill="#71e7b4" stroke="#71e7b4" stroke-width="1.25" points="943.13,-49.62 940.5,-42.12 937.88,-49.62 943.13,-49.62"/>
</g>
<!-- active&#45;&gt;result -->
<g id="edge19" class="edge">
<title>active&#45;&gt;result</title>
<path fill="none" stroke="#71e7b4" stroke-width="1.25" d="M1060.33,-90.8C1037.14,-77.49 1006.66,-59.99 982.25,-45.97"/>
<polygon fill="#71e7b4" stroke="#71e7b4" stroke-width="1.25" points="983.34,-43.57 975.53,-42.12 980.73,-48.13 983.34,-43.57"/>
</g>
<!-- external&#45;&gt;result -->
<g id="edge20" class="edge">
<title>external&#45;&gt;result</title>
<path fill="none" stroke="#71e7b4" stroke-width="1.25" d="M1196.8,-90.92C1138.5,-75.24 1058.42,-53.71 1003.37,-38.91"/>
<polygon fill="#71e7b4" stroke="#71e7b4" stroke-width="1.25" points="1004.04,-36.37 996.11,-36.95 1002.67,-41.44 1004.04,-36.37"/>
</g>
<!-- result&#45;&gt;store -->
<g id="edge21" class="edge">
<title>result&#45;&gt;store</title>
<path fill="none" stroke="#71e7b4" stroke-width="1.25" d="M884.97,-38.88C817.77,-59.31 713.5,-91 713.5,-91 713.5,-91 668.57,-245.22 647.8,-316.51"/>
<polygon fill="#71e7b4" stroke="#71e7b4" stroke-width="1.25" points="645.21,-316.02 645.63,-323.96 650.25,-317.49 645.21,-316.02"/>
<text text-anchor="middle" x="726" y="-159.8" font-family="Arial" font-size="9.00" fill="#b9d9ce">persist outcome</text>
</g>
</g>
</svg>
