<?xml version="1.0" encoding="UTF-8" standalone="no"?>
<!DOCTYPE svg PUBLIC "-//W3C//DTD SVG 1.1//EN"
 "http://www.w3.org/Graphics/SVG/1.1/DTD/svg11.dtd">
<!-- Generated by graphviz version 2.42.4 (0)
 -->
<!-- Title: BAITResponseFlow Pages: 1 -->
<svg width="1318pt" height="1358pt"
 viewBox="0.00 0.00 1318.40 1358.40" xmlns="http://www.w3.org/2000/svg" xmlns:xlink="http://www.w3.org/1999/xlink">
<g id="graph0" class="graph" transform="scale(1 1) rotate(0) translate(25.2 1333.2)">
<title>BAITResponseFlow</title>
<text text-anchor="middle" x="134" y="-1288" font-family="Arial" font-size="20.00" fill="#ddf8ee">BAIT response decision flow</text>
<!-- request -->
<g id="node1" class="node">
<title>request</title>
<path fill="#15372d" stroke="#79f2bd" stroke-width="1.4" d="M271,-1278C271,-1278 49,-1278 49,-1278 43,-1278 37,-1272 37,-1266 37,-1266 37,-1254 37,-1254 37,-1248 43,-1242 49,-1242 49,-1242 271,-1242 271,-1242 277,-1242 283,-1248 283,-1254 283,-1254 283,-1266 283,-1266 283,-1272 277,-1278 271,-1278"/>
<text text-anchor="middle" x="160" y="-1257.3" font-family="Arial" font-size="11.50" fill="#e8fff7">Analyst or API requests a response action</text>
</g>
<!-- known -->
<g id="node2" class="node">
<title>known</title>
<path fill="#342f19" stroke="#ffe07d" stroke-width="1.4" d="M148.22,-1200.72C148.22,-1200.72 11.78,-1174.28 11.78,-1174.28 5.89,-1173.14 5.89,-1170.86 11.78,-1169.72 11.78,-1169.72 148.22,-1143.28 148.22,-1143.28 154.11,-1142.14 165.89,-1142.14 171.78,-1143.28 171.78,-1143.28 308.22,-1169.72 308.22,-1169.72 314.11,-1170.86 314.11,-1173.14 308.22,-1174.28 308.22,-1174.28 171.78,-1200.72 171.78,-1200.72 165.89,-1201.86 154.11,-1201.86 148.22,-1200.72"/>
<text text-anchor="middle" x="160" y="-1169.3" font-family="Arial" font-size="11.50" fill="#e8fff7">Is the action recognized?</text>
</g>
<!-- request&#45;&gt;known -->
<g id="edge1" class="edge">
<title>request&#45;&gt;known</title>
<path fill="none" stroke="#71e7b4" stroke-width="1.25" d="M160,-1241.6C160,-1232.75 160,-1221.63 160,-1210.93"/>
<polygon fill="#71e7b4" stroke="#71e7b4" stroke-width="1.25" points="162.66,-1210.86 160,-1203.26 157.34,-1210.86 162.66,-1210.86"/>
</g>
<!-- triage -->
<g id="node3" class="node">
<title>triage</title>
<path fill="#342f19" stroke="#ffe07d" stroke-width="1.4" d="M557.19,-1090.85C557.19,-1090.85 410.81,-1064.15 410.81,-1064.15 404.9,-1063.08 404.9,-1060.92 410.81,-1059.85 410.81,-1059.85 557.19,-1033.15 557.19,-1033.15 563.1,-1032.08 574.9,-1032.08 580.81,-1033.15 580.81,-1033.15 727.19,-1059.85 727.19,-1059.85 733.1,-1060.92 733.1,-1063.08 727.19,-1064.15 727.19,-1064.15 580.81,-1090.85 580.81,-1090.85 574.9,-1091.92 563.1,-1091.92 557.19,-1090.85"/>
<text text-anchor="middle" x="569" y="-1059.3" font-family="Arial" font-size="11.50" fill="#e8fff7">Is the action collect_triage?</text>
</g>
<!-- known&#45;&gt;triage -->
<g id="edge3" class="edge">
<title>known&#45;&gt;triage</title>
<path fill="none" stroke="#71e7b4" stroke-width="1.25" d="M225.71,-1153.65C298.96,-1134.31 417.17,-1103.09 493.99,-1082.81"/>
<polygon fill="#71e7b4" stroke="#71e7b4" stroke-width="1.25" points="495.08,-1085.27 501.75,-1080.76 493.72,-1080.13 495.08,-1085.27"/>
<text text-anchor="middle" x="385" y="-1114.4" font-family="Arial" font-size="9.50" fill="#b9d9ce">Yes</text>
</g>
<!-- blocked -->
<g id="node13" class="node">
<title>blocked</title>
<path fill="#242b27" stroke="#315c50" stroke-width="1.4" d="M520,-211C520,-211 338,-211 338,-211 332,-211 326,-205 326,-199 326,-199 326,-179 326,-179 326,-173 332,-167 338,-167 338,-167 520,-167 520,-167 526,-167 532,-173 532,-179 532,-179 532,-199 532,-199 532,-205 526,-211 520,-211"/>
<text text-anchor="middle" x="429" y="-192.8" font-family="Arial" font-size="11.50" fill="#e8fff7">Status: blocked</text>
<text text-anchor="middle" x="429" y="-179.8" font-family="Arial" font-size="11.50" fill="#e8fff7">Safety boundary prevented action</text>
</g>
<!-- known&#45;&gt;blocked -->
<g id="edge2" class="edge">
<title>known&#45;&gt;blocked</title>
<path fill="none" stroke="#71e7b4" stroke-width="1.25" d="M152.84,-1142.34C144.84,-1110.35 133,-1063 133,-1063 133,-1063 133,-1063 133,-302 133,-302 181,-259 181,-259 181,-259 273.83,-233.17 345.9,-213.12"/>
<polygon fill="#71e7b4" stroke="#71e7b4" stroke-width="1.25" points="346.64,-215.68 353.24,-211.08 345.21,-210.55 346.64,-215.68"/>
<text text-anchor="middle" x="139.5" y="-703.4" font-family="Arial" font-size="9.50" fill="#b9d9ce">No</text>
</g>
<!-- family -->
<g id="node4" class="node">
<title>family</title>
<path fill="#342f19" stroke="#ffe07d" stroke-width="1.4" d="M557.3,-980.31C557.3,-980.31 445.7,-954.69 445.7,-954.69 439.85,-953.34 439.85,-950.66 445.7,-949.31 445.7,-949.31 557.3,-923.69 557.3,-923.69 563.15,-922.34 574.85,-922.34 580.7,-923.69 580.7,-923.69 692.3,-949.31 692.3,-949.31 698.15,-950.66 698.15,-953.34 692.3,-954.69 692.3,-954.69 580.7,-980.31 580.7,-980.31 574.85,-981.66 563.15,-981.66 557.3,-980.31"/>
<text text-anchor="middle" x="569" y="-949.3" font-family="Arial" font-size="11.50" fill="#e8fff7">Which action family?</text>
</g>
<!-- triage&#45;&gt;family -->
<g id="edge5" class="edge">
<title>triage&#45;&gt;family</title>
<path fill="none" stroke="#71e7b4" stroke-width="1.25" d="M569,-1030.92C569,-1018.61 569,-1004.24 569,-991.21"/>
<polygon fill="#71e7b4" stroke="#71e7b4" stroke-width="1.25" points="571.66,-990.9 569,-983.3 566.34,-990.9 571.66,-990.9"/>
<text text-anchor="middle" x="575.5" y="-1004.4" font-family="Arial" font-size="9.50" fill="#b9d9ce">No</text>
</g>
<!-- executed -->
<g id="node16" class="node">
<title>executed</title>
<path fill="#15372d" stroke="#79f2bd" stroke-width="1.4" d="M1045,-115C1045,-115 953,-115 953,-115 947,-115 941,-109 941,-103 941,-103 941,-91 941,-91 941,-85 947,-79 953,-79 953,-79 1045,-79 1045,-79 1051,-79 1057,-85 1057,-91 1057,-91 1057,-103 1057,-103 1057,-109 1051,-115 1045,-115"/>
<text text-anchor="middle" x="999" y="-94.3" font-family="Arial" font-size="11.50" fill="#e8fff7">Status: executed</text>
</g>
<!-- triage&#45;&gt;executed -->
<g id="edge4" class="edge">
<title>triage&#45;&gt;executed</title>
<path fill="none" stroke="#71e7b4" stroke-width="1.25" d="M657.24,-1047.05C841.88,-1017.85 1252,-953 1252,-953 1252,-953 1252,-953 1252,-188 1252,-188 1200,-167 1200,-167 1200,-167 1115.58,-138.02 1056.16,-117.62"/>
<polygon fill="#71e7b4" stroke="#71e7b4" stroke-width="1.25" points="1056.74,-115.01 1048.69,-115.06 1055.01,-120.04 1056.74,-115.01"/>
<text text-anchor="middle" x="1260" y="-559.4" font-family="Arial" font-size="9.50" fill="#b9d9ce">Yes</text>
</g>
<!-- external_target -->
<g id="node5" class="node">
<title>external_target</title>
<path fill="#342f19" stroke="#ffe07d" stroke-width="1.4" d="M360.31,-870.29C360.31,-870.29 193.69,-831.71 193.69,-831.71 187.85,-830.35 187.85,-827.65 193.69,-826.29 193.69,-826.29 360.31,-787.71 360.31,-787.71 366.15,-786.35 377.85,-786.35 383.69,-787.71 383.69,-787.71 550.31,-826.29 550.31,-826.29 556.15,-827.65 556.15,-830.35 550.31,-831.71 550.31,-831.71 383.69,-870.29 383.69,-870.29 377.85,-871.65 366.15,-871.65 360.31,-870.29"/>
<text text-anchor="middle" x="372" y="-832.8" font-family="Arial" font-size="11.50" fill="#e8fff7">Is the required host or indicator</text>
<text text-anchor="middle" x="372" y="-819.8" font-family="Arial" font-size="11.50" fill="#e8fff7">context present?</text>
</g>
<!-- family&#45;&gt;external_target -->
<g id="edge6" class="edge">
<title>family&#45;&gt;external_target</title>
<path fill="none" stroke="#71e7b4" stroke-width="1.25" d="M533.32,-929.09C504.43,-911.34 463.15,-885.98 429.58,-865.37"/>
<polygon fill="#71e7b4" stroke="#71e7b4" stroke-width="1.25" points="430.84,-863.02 422.97,-861.31 428.06,-867.55 430.84,-863.02"/>
<text text-anchor="middle" x="517" y="-894.4" font-family="Arial" font-size="9.50" fill="#b9d9ce">External plan</text>
</g>
<!-- local_target -->
<g id="node6" class="node">
<title>local_target</title>
<path fill="#342f19" stroke="#ffe07d" stroke-width="1.4" d="M785.14,-858.19C785.14,-858.19 605.86,-830.81 605.86,-830.81 599.93,-829.91 599.93,-828.09 605.86,-827.19 605.86,-827.19 785.14,-799.81 785.14,-799.81 791.07,-798.91 802.93,-798.91 808.86,-799.81 808.86,-799.81 988.14,-827.19 988.14,-827.19 994.07,-828.09 994.07,-829.91 988.14,-830.81 988.14,-830.81 808.86,-858.19 808.86,-858.19 802.93,-859.09 791.07,-859.09 785.14,-858.19"/>
<text text-anchor="middle" x="797" y="-826.3" font-family="Arial" font-size="11.50" fill="#e8fff7">Is a valid PID or file path present?</text>
</g>
<!-- family&#45;&gt;local_target -->
<g id="edge10" class="edge">
<title>family&#45;&gt;local_target</title>
<path fill="none" stroke="#71e7b4" stroke-width="1.25" d="M608.71,-929.92C646.91,-909.66 704.8,-878.93 746.3,-856.91"/>
<polygon fill="#71e7b4" stroke="#71e7b4" stroke-width="1.25" points="747.61,-859.22 753.07,-853.31 745.11,-854.53 747.61,-859.22"/>
<text text-anchor="middle" x="728" y="-894.4" font-family="Arial" font-size="9.50" fill="#b9d9ce">Terminate or quarantine</text>
</g>
<!-- external -->
<g id="node12" class="node">
<title>external</title>
<path fill="#242b27" stroke="#315c50" stroke-width="1.4" d="M464,-656C464,-656 240,-656 240,-656 234,-656 228,-650 228,-644 228,-644 228,-624 228,-624 228,-618 234,-612 240,-612 240,-612 464,-612 464,-612 470,-612 476,-618 476,-624 476,-624 476,-644 476,-644 476,-650 470,-656 464,-656"/>
<text text-anchor="middle" x="352" y="-637.8" font-family="Arial" font-size="11.50" fill="#e8fff7">Record isolation or indicator&#45;block request</text>
<text text-anchor="middle" x="352" y="-624.8" font-family="Arial" font-size="11.50" fill="#e8fff7">for approved external enforcement</text>
</g>
<!-- external_target&#45;&gt;external -->
<g id="edge8" class="edge">
<title>external_target&#45;&gt;external</title>
<path fill="none" stroke="#71e7b4" stroke-width="1.25" d="M367.61,-785.65C363.78,-748.72 358.34,-696.15 354.99,-663.87"/>
<polygon fill="#71e7b4" stroke="#71e7b4" stroke-width="1.25" points="357.62,-663.41 354.19,-656.13 352.33,-663.96 357.62,-663.41"/>
<text text-anchor="middle" x="374" y="-758.4" font-family="Arial" font-size="9.50" fill="#b9d9ce">Yes</text>
</g>
<!-- external_target&#45;&gt;blocked -->
<g id="edge7" class="edge">
<title>external_target&#45;&gt;blocked</title>
<path fill="none" stroke="#71e7b4" stroke-width="1.25" d="M327.08,-795.26C277.92,-759.42 206,-707 206,-707 206,-707 206,-707 206,-302 206,-302 314.41,-247.55 380.06,-214.58"/>
<polygon fill="#71e7b4" stroke="#71e7b4" stroke-width="1.25" points="381.46,-216.85 387.06,-211.07 379.07,-212.1 381.46,-216.85"/>
<text text-anchor="middle" x="212.5" y="-504.4" font-family="Arial" font-size="9.50" fill="#b9d9ce">No</text>
</g>
<!-- mode -->
<g id="node7" class="node">
<title>mode</title>
<path fill="#342f19" stroke="#ffe07d" stroke-width="1.4" d="M825.21,-734.77C825.21,-734.77 684.79,-708.23 684.79,-708.23 678.9,-707.11 678.9,-704.89 684.79,-703.77 684.79,-703.77 825.21,-677.23 825.21,-677.23 831.1,-676.11 842.9,-676.11 848.79,-677.23 848.79,-677.23 989.21,-703.77 989.21,-703.77 995.1,-704.89 995.1,-707.11 989.21,-708.23 989.21,-708.23 848.79,-734.77 848.79,-734.77 842.9,-735.89 831.1,-735.89 825.21,-734.77"/>
<text text-anchor="middle" x="837" y="-703.3" font-family="Arial" font-size="11.50" fill="#e8fff7">Is response mode active?</text>
</g>
<!-- local_target&#45;&gt;mode -->
<g id="edge12" class="edge">
<title>local_target&#45;&gt;mode</title>
<path fill="none" stroke="#71e7b4" stroke-width="1.25" d="M806.48,-799.32C812.06,-782.45 819.17,-760.95 825.12,-742.95"/>
<polygon fill="#71e7b4" stroke="#71e7b4" stroke-width="1.25" points="827.73,-743.52 827.59,-735.47 822.68,-741.85 827.73,-743.52"/>
<text text-anchor="middle" x="829" y="-758.4" font-family="Arial" font-size="9.50" fill="#b9d9ce">Yes</text>
</g>
<!-- local_target&#45;&gt;blocked -->
<g id="edge11" class="edge">
<title>local_target&#45;&gt;blocked</title>
<path fill="none" stroke="#71e7b4" stroke-width="1.25" d="M759.48,-803.61C718.01,-776.66 657,-737 657,-737 657,-737 451,-483 451,-483 451,-483 436.69,-292.4 431.15,-218.65"/>
<polygon fill="#71e7b4" stroke="#71e7b4" stroke-width="1.25" points="433.8,-218.45 430.58,-211.07 428.5,-218.85 433.8,-218.45"/>
<text text-anchor="middle" x="481.5" y="-504.4" font-family="Arial" font-size="9.50" fill="#b9d9ce">No</text>
</g>
<!-- enabled -->
<g id="node8" class="node">
<title>enabled</title>
<path fill="#342f19" stroke="#ffe07d" stroke-width="1.4" d="M825.12,-591.31C825.12,-591.31 630.88,-563.69 630.88,-563.69 624.94,-562.84 624.94,-561.16 630.88,-560.31 630.88,-560.31 825.12,-532.69 825.12,-532.69 831.06,-531.84 842.94,-531.84 848.88,-532.69 848.88,-532.69 1043.12,-560.31 1043.12,-560.31 1049.06,-561.16 1049.06,-562.84 1043.12,-563.69 1043.12,-563.69 848.88,-591.31 848.88,-591.31 842.94,-592.16 831.06,-592.16 825.12,-591.31"/>
<text text-anchor="middle" x="837" y="-559.3" font-family="Arial" font-size="11.50" fill="#e8fff7">Is the local action explicitly enabled?</text>
</g>
<!-- mode&#45;&gt;enabled -->
<g id="edge14" class="edge">
<title>mode&#45;&gt;enabled</title>
<path fill="none" stroke="#71e7b4" stroke-width="1.25" d="M837,-674.89C837,-653.24 837,-623.89 837,-600.69"/>
<polygon fill="#71e7b4" stroke="#71e7b4" stroke-width="1.25" points="839.66,-600.67 837,-593.07 834.34,-600.67 839.66,-600.67"/>
<text text-anchor="middle" x="845" y="-631.4" font-family="Arial" font-size="9.50" fill="#b9d9ce">Yes</text>
</g>
<!-- planned -->
<g id="node14" class="node">
<title>planned</title>
<path fill="#242b27" stroke="#315c50" stroke-width="1.4" d="M1172,-211C1172,-211 1056,-211 1056,-211 1050,-211 1044,-205 1044,-199 1044,-199 1044,-179 1044,-179 1044,-173 1050,-167 1056,-167 1056,-167 1172,-167 1172,-167 1178,-167 1184,-173 1184,-179 1184,-179 1184,-199 1184,-199 1184,-205 1178,-211 1172,-211"/>
<text text-anchor="middle" x="1114" y="-192.8" font-family="Arial" font-size="11.50" fill="#e8fff7">Status: planned</text>
<text text-anchor="middle" x="1114" y="-179.8" font-family="Arial" font-size="11.50" fill="#e8fff7">No disruptive change</text>
</g>
<!-- mode&#45;&gt;planned -->
<g id="edge13" class="edge">
<title>mode&#45;&gt;planned</title>
<path fill="none" stroke="#71e7b4" stroke-width="1.25" d="M885.1,-684.05C975.78,-644.55 1163,-563 1163,-563 1163,-563 1163,-563 1163,-302 1163,-302 1140.88,-251.45 1126.37,-218.27"/>
<polygon fill="#71e7b4" stroke="#71e7b4" stroke-width="1.25" points="1128.7,-216.96 1123.22,-211.07 1123.83,-219.1 1128.7,-216.96"/>
<text text-anchor="middle" x="1183" y="-436.4" font-family="Arial" font-size="9.50" fill="#b9d9ce">No, audit</text>
</g>
<!-- boundaries -->
<g id="node9" class="node">
<title>boundaries</title>
<path fill="#342f19" stroke="#ffe07d" stroke-width="1.4" d="M738.14,-481.16C738.14,-481.16 478.86,-440.84 478.86,-440.84 472.93,-439.92 472.93,-438.08 478.86,-437.16 478.86,-437.16 738.14,-396.84 738.14,-396.84 744.07,-395.92 755.93,-395.92 761.86,-396.84 761.86,-396.84 1021.14,-437.16 1021.14,-437.16 1027.07,-438.08 1027.07,-439.92 1021.14,-440.84 1021.14,-440.84 761.86,-481.16 761.86,-481.16 755.93,-482.08 744.07,-482.08 738.14,-481.16"/>
<text text-anchor="middle" x="750" y="-442.8" font-family="Arial" font-size="11.50" fill="#e8fff7">Does the reported target pass protected&#45;process</text>
<text text-anchor="middle" x="750" y="-429.8" font-family="Arial" font-size="11.50" fill="#e8fff7">or approved&#45;path boundaries?</text>
</g>
<!-- enabled&#45;&gt;boundaries -->
<g id="edge16" class="edge">
<title>enabled&#45;&gt;boundaries</title>
<path fill="none" stroke="#71e7b4" stroke-width="1.25" d="M817.26,-533.54C806.99,-519.26 794.17,-501.44 782.49,-485.19"/>
<polygon fill="#71e7b4" stroke="#71e7b4" stroke-width="1.25" points="784.51,-483.43 777.91,-478.82 780.19,-486.54 784.51,-483.43"/>
<text text-anchor="middle" x="810" y="-504.4" font-family="Arial" font-size="9.50" fill="#b9d9ce">Yes</text>
</g>
<!-- enabled&#45;&gt;planned -->
<g id="edge15" class="edge">
<title>enabled&#45;&gt;planned</title>
<path fill="none" stroke="#71e7b4" stroke-width="1.25" d="M896.05,-539.27C958.78,-516.19 1049,-483 1049,-483 1049,-483 1091.28,-292.4 1107.64,-218.65"/>
<polygon fill="#71e7b4" stroke="#71e7b4" stroke-width="1.25" points="1110.28,-219.07 1109.33,-211.07 1105.08,-217.92 1110.28,-219.07"/>
<text text-anchor="middle" x="1080.5" y="-368.4" font-family="Arial" font-size="9.50" fill="#b9d9ce">No</text>
</g>
<!-- identity -->
<g id="node10" class="node">
<title>identity</title>
<path fill="#342f19" stroke="#ffe07d" stroke-width="1.4" d="M732.21,-344.75C732.21,-344.75 525.79,-305.25 525.79,-305.25 519.89,-304.13 519.89,-301.87 525.79,-300.75 525.79,-300.75 732.21,-261.25 732.21,-261.25 738.11,-260.13 749.89,-260.13 755.79,-261.25 755.79,-261.25 962.21,-300.75 962.21,-300.75 968.11,-301.87 968.11,-304.13 962.21,-305.25 962.21,-305.25 755.79,-344.75 755.79,-344.75 749.89,-345.87 738.11,-345.87 732.21,-344.75"/>
<text text-anchor="middle" x="744" y="-306.8" font-family="Arial" font-size="11.50" fill="#e8fff7">Re&#45;resolve and verify the live target</text>
<text text-anchor="middle" x="744" y="-293.8" font-family="Arial" font-size="11.50" fill="#e8fff7">PID, name, create time, canonical path</text>
</g>
<!-- boundaries&#45;&gt;identity -->
<g id="edge18" class="edge">
<title>boundaries&#45;&gt;identity</title>
<path fill="none" stroke="#71e7b4" stroke-width="1.25" d="M748.09,-395.23C747.51,-382.3 746.86,-367.97 746.26,-354.58"/>
<polygon fill="#71e7b4" stroke="#71e7b4" stroke-width="1.25" points="748.91,-354.29 745.92,-346.82 743.6,-354.53 748.91,-354.29"/>
<text text-anchor="middle" x="756" y="-368.4" font-family="Arial" font-size="9.50" fill="#b9d9ce">Yes</text>
</g>
<!-- boundaries&#45;&gt;blocked -->
<g id="edge17" class="edge">
<title>boundaries&#45;&gt;blocked</title>
<path fill="none" stroke="#71e7b4" stroke-width="1.25" d="M663.6,-408.33C586.26,-381.77 485,-347 485,-347 485,-347 455.24,-263.58 439.11,-218.35"/>
<polygon fill="#71e7b4" stroke="#71e7b4" stroke-width="1.25" points="441.61,-217.44 436.55,-211.17 436.6,-219.23 441.61,-217.44"/>
<text text-anchor="middle" x="491.5" y="-300.4" font-family="Arial" font-size="9.50" fill="#b9d9ce">No</text>
</g>
<!-- execute -->
<g id="node11" class="node">
<title>execute</title>
<path fill="#3a241f" stroke="#ff9c7d" stroke-width="1.4" d="M921,-207C921,-207 739,-207 739,-207 733,-207 727,-201 727,-195 727,-195 727,-183 727,-183 727,-177 733,-171 739,-171 739,-171 921,-171 921,-171 927,-171 933,-177 933,-183 933,-183 933,-195 933,-195 933,-201 927,-207 921,-207"/>
<text text-anchor="middle" x="830" y="-186.3" font-family="Arial" font-size="11.50" fill="#e8fff7">Execute the approved local action</text>
</g>
<!-- identity&#45;&gt;execute -->
<g id="edge20" class="edge">
<title>identity&#45;&gt;execute</title>
<path fill="none" stroke="#71e7b4" stroke-width="1.25" d="M772.88,-264.39C785.74,-247.64 800.5,-228.42 811.8,-213.71"/>
<polygon fill="#71e7b4" stroke="#71e7b4" stroke-width="1.25" points="814.2,-214.94 816.72,-207.29 809.98,-211.7 814.2,-214.94"/>
<text text-anchor="middle" x="814.5" y="-232.4" font-family="Arial" font-size="9.50" fill="#b9d9ce">Verified</text>
</g>
<!-- identity&#45;&gt;blocked -->
<g id="edge19" class="edge">
<title>identity&#45;&gt;blocked</title>
<path fill="none" stroke="#71e7b4" stroke-width="1.25" d="M665.32,-274.03C613.05,-255.44 545.15,-231.3 495.56,-213.67"/>
<polygon fill="#71e7b4" stroke="#71e7b4" stroke-width="1.25" points="496.43,-211.15 488.38,-211.11 494.65,-216.17 496.43,-211.15"/>
<text text-anchor="middle" x="589" y="-232.4" font-family="Arial" font-size="9.50" fill="#b9d9ce">Mismatch</text>
</g>
<!-- failed -->
<g id="node15" class="node">
<title>failed</title>
<path fill="#3a241f" stroke="#ff9c7d" stroke-width="1.4" d="M897,-119C897,-119 763,-119 763,-119 757,-119 751,-113 751,-107 751,-107 751,-87 751,-87 751,-81 757,-75 763,-75 763,-75 897,-75 897,-75 903,-75 909,-81 909,-87 909,-87 909,-107 909,-107 909,-113 903,-119 897,-119"/>
<text text-anchor="middle" x="830" y="-100.8" font-family="Arial" font-size="11.50" fill="#e8fff7">Status: failed</text>
<text text-anchor="middle" x="830" y="-87.8" font-family="Arial" font-size="11.50" fill="#e8fff7">Execution error recorded</text>
</g>
<!-- execute&#45;&gt;failed -->
<g id="edge22" class="edge">
<title>execute&#45;&gt;failed</title>
<path fill="none" stroke="#71e7b4" stroke-width="1.25" d="M830,-170.65C830,-158.23 830,-141.24 830,-126.81"/>
<polygon fill="#71e7b4" stroke="#71e7b4" stroke-width="1.25" points="832.66,-126.7 830,-119.1 827.34,-126.7 832.66,-126.7"/>
<text text-anchor="middle" x="840.5" y="-140.4" font-family="Arial" font-size="9.50" fill="#b9d9ce">Error</text>
</g>
<!-- execute&#45;&gt;executed -->
<g id="edge21" class="edge">
<title>execute&#45;&gt;executed</title>
<path fill="none" stroke="#71e7b4" stroke-width="1.25" d="M862.19,-170.86C890.03,-156.03 930.36,-134.56 960.02,-118.76"/>
<polygon fill="#71e7b4" stroke="#71e7b4" stroke-width="1.25" points="961.48,-121 966.93,-115.08 958.98,-116.3 961.48,-121"/>
<text text-anchor="middle" x="936.5" y="-140.4" font-family="Arial" font-size="9.50" fill="#b9d9ce">Success</text>
</g>
<!-- external&#45;&gt;planned -->
<g id="edge9" class="edge">
<title>external&#45;&gt;planned</title>
<path fill="none" stroke="#71e7b4" stroke-width="1.25" d="M359.39,-611.95C372.39,-574.92 398,-502 398,-502 398,-502 451,-395 451,-395 451,-395 772,-376 772,-376 772,-376 990,-347 990,-347 990,-347 1056.98,-262.19 1092.49,-217.24"/>
<polygon fill="#71e7b4" stroke="#71e7b4" stroke-width="1.25" points="1094.65,-218.79 1097.28,-211.17 1090.48,-215.49 1094.65,-218.79"/>
</g>
<!-- record -->
<g id="node17" class="node">
<title>record</title>
<path fill="#15372d" stroke="#79f2bd" stroke-width="1.4" d="M1084.5,-36C1084.5,-36 785.5,-36 785.5,-36 779.5,-36 773.5,-30 773.5,-24 773.5,-24 773.5,-12 773.5,-12 773.5,-6 779.5,0 785.5,0 785.5,0 1084.5,0 1084.5,0 1090.5,0 1096.5,-6 1096.5,-12 1096.5,-12 1096.5,-24 1096.5,-24 1096.5,-30 1090.5,-36 1084.5,-36"/>
<text text-anchor="middle" x="935" y="-15.3" font-family="Arial" font-size="11.50" fill="#e8fff7">Persist ResponseResult, status, message, and evidence</text>
</g>
<!-- blocked&#45;&gt;record -->
<g id="edge23" class="edge">
<title>blocked&#45;&gt;record</title>
<path fill="none" stroke="#71e7b4" stroke-width="1.25" d="M486.2,-166.88C574.76,-134.17 735,-75 735,-75 735,-75 808.88,-54.31 866.84,-38.09"/>
<polygon fill="#71e7b4" stroke="#71e7b4" stroke-width="1.25" points="867.58,-40.64 874.18,-36.03 866.14,-35.52 867.58,-40.64"/>
</g>
<!-- planned&#45;&gt;record -->
<g id="edge24" class="edge">
<title>planned&#45;&gt;record</title>
<path fill="none" stroke="#71e7b4" stroke-width="1.25" d="M1106.29,-166.75C1094.41,-134.01 1073,-75 1073,-75 1073,-75 1024.02,-55.13 984.43,-39.06"/>
<polygon fill="#71e7b4" stroke="#71e7b4" stroke-width="1.25" points="985.2,-36.5 977.15,-36.11 983.2,-41.43 985.2,-36.5"/>
</g>
<!-- failed&#45;&gt;record -->
<g id="edge25" class="edge">
<title>failed&#45;&gt;record</title>
<path fill="none" stroke="#71e7b4" stroke-width="1.25" d="M858.69,-74.96C873.12,-64.38 890.59,-51.57 905.17,-40.87"/>
<polygon fill="#71e7b4" stroke="#71e7b4" stroke-width="1.25" points="907.09,-42.76 911.65,-36.12 903.95,-38.47 907.09,-42.76"/>
</g>
<!-- executed&#45;&gt;record -->
<g id="edge26" class="edge">
<title>executed&#45;&gt;record</title>
<path fill="none" stroke="#71e7b4" stroke-width="1.25" d="M984.8,-78.91C975.76,-68.05 963.96,-53.84 954.11,-41.99"/>
<polygon fill="#71e7b4" stroke="#71e7b4" stroke-width="1.25" points="956.07,-40.19 949.16,-36.04 951.98,-43.59 956.07,-40.19"/>
</g>
</g>
</svg>
