<?xml version="1.0" encoding="UTF-8" standalone="no"?>
<!DOCTYPE svg PUBLIC "-//W3C//DTD SVG 1.1//EN"
 "http://www.w3.org/Graphics/SVG/1.1/DTD/svg11.dtd">
<!-- Generated by graphviz version 2.42.4 (0)
 -->
<!-- Title: BAITTrustBoundaries Pages: 1 -->
<svg width="1141pt" height="515pt"
 viewBox="0.00 0.00 1141.40 515.40" xmlns="http://www.w3.org/2000/svg" xmlns:xlink="http://www.w3.org/1999/xlink">
<g id="graph0" class="graph" transform="scale(1 1) rotate(0) translate(25.2 490.2)">
<title>BAITTrustBoundaries</title>
<text text-anchor="middle" x="180" y="-446.6" font-family="Arial" font-size="18.00" fill="#ddf8ee">BAIT trust boundaries and protected assets</text>
<g id="clust1" class="cluster">
<title>cluster_os</title>
<path fill="transparent" stroke="#315c50" stroke-dasharray="5,2" d="M264,-281C264,-281 467,-281 467,-281 473,-281 479,-287 479,-293 479,-293 479,-417 479,-417 479,-423 473,-429 467,-429 467,-429 264,-429 264,-429 258,-429 252,-423 252,-417 252,-417 252,-293 252,-293 252,-287 258,-281 264,-281"/>
<text text-anchor="middle" x="365.5" y="-410.6" font-family="Arial" font-size="18.00" fill="#9fbeb3">Endpoint operating system</text>
</g>
<g id="clust2" class="cluster">
<title>cluster_agent</title>
<path fill="transparent" stroke="#79f2bd" d="M614.5,-281C614.5,-281 1056.5,-281 1056.5,-281 1062.5,-281 1068.5,-287 1068.5,-293 1068.5,-293 1068.5,-417 1068.5,-417 1068.5,-423 1062.5,-429 1056.5,-429 1056.5,-429 614.5,-429 614.5,-429 608.5,-429 602.5,-423 602.5,-417 602.5,-417 602.5,-293 602.5,-293 602.5,-287 608.5,-281 614.5,-281"/>
<text text-anchor="middle" x="689" y="-410.6" font-family="Arial" font-size="18.00" fill="#79f2bd">BAIT agent process</text>
</g>
<g id="clust3" class="cluster">
<title>cluster_data</title>
<path fill="transparent" stroke="#315c50" stroke-dasharray="5,2" d="M917,-55C917,-55 1071,-55 1071,-55 1077,-55 1083,-61 1083,-67 1083,-67 1083,-261 1083,-261 1083,-267 1077,-273 1071,-273 1071,-273 917,-273 917,-273 911,-273 905,-267 905,-261 905,-261 905,-67 905,-67 905,-61 911,-55 917,-55"/>
<text text-anchor="middle" x="994" y="-254.6" font-family="Arial" font-size="18.00" fill="#9fbeb3">Local protected data</text>
</g>
<g id="clust4" class="cluster">
<title>cluster_client</title>
<path fill="transparent" stroke="#315c50" stroke-dasharray="5,2" d="M20,-72C20,-72 406,-72 406,-72 412,-72 418,-78 418,-84 418,-84 418,-146 418,-146 418,-152 412,-158 406,-158 406,-158 20,-158 20,-158 14,-158 8,-152 8,-146 8,-146 8,-84 8,-84 8,-78 14,-72 20,-72"/>
<text text-anchor="middle" x="135" y="-139.6" font-family="Arial" font-size="18.00" fill="#9fbeb3">Administrative client boundary</text>
</g>
<!-- osdata -->
<g id="node1" class="node">
<title>osdata</title>
<path fill="#10231e" stroke="#315c50" stroke-width="1.3" d="M435,-393C435,-393 295,-393 295,-393 289,-393 283,-387 283,-381 283,-381 283,-369 283,-369 283,-363 289,-357 295,-357 295,-357 435,-357 435,-357 441,-357 447,-363 447,-369 447,-369 447,-381 447,-381 447,-387 441,-393 435,-393"/>
<text text-anchor="middle" x="365" y="-372.6" font-family="Arial" font-size="10.50" fill="#e8fff7">Processes, connections, files</text>
</g>
<!-- collector -->
<g id="node3" class="node">
<title>collector</title>
<path fill="#10231e" stroke="#315c50" stroke-width="1.3" d="M710.5,-393C710.5,-393 660.5,-393 660.5,-393 654.5,-393 648.5,-387 648.5,-381 648.5,-381 648.5,-369 648.5,-369 648.5,-363 654.5,-357 660.5,-357 660.5,-357 710.5,-357 710.5,-357 716.5,-357 722.5,-363 722.5,-369 722.5,-369 722.5,-381 722.5,-381 722.5,-387 716.5,-393 710.5,-393"/>
<text text-anchor="middle" x="685.5" y="-372.6" font-family="Arial" font-size="10.50" fill="#e8fff7">Collectors</text>
</g>
<!-- osdata&#45;&gt;collector -->
<g id="edge1" class="edge">
<title>osdata&#45;&gt;collector</title>
<path fill="none" stroke="#71e7b4" stroke-width="1.2" d="M447.2,-375C508.9,-375 591.38,-375 641.08,-375"/>
<polygon fill="#71e7b4" stroke="#71e7b4" stroke-width="1.2" points="641.27,-377.52 648.47,-375 641.27,-372.48 641.27,-377.52"/>
<text text-anchor="middle" x="531" y="-377.8" font-family="Arial" font-size="9.00" fill="#b9d9ce">privilege&#45;limited read</text>
</g>
<!-- oscontrol -->
<g id="node2" class="node">
<title>oscontrol</title>
<path fill="#10231e" stroke="#315c50" stroke-width="1.3" d="M424.5,-325C424.5,-325 305.5,-325 305.5,-325 299.5,-325 293.5,-319 293.5,-313 293.5,-313 293.5,-301 293.5,-301 293.5,-295 299.5,-289 305.5,-289 305.5,-289 424.5,-289 424.5,-289 430.5,-289 436.5,-295 436.5,-301 436.5,-301 436.5,-313 436.5,-313 436.5,-319 430.5,-325 424.5,-325"/>
<text text-anchor="middle" x="365" y="-304.6" font-family="Arial" font-size="10.50" fill="#e8fff7">Process and file controls</text>
</g>
<!-- detector -->
<g id="node4" class="node">
<title>detector</title>
<path fill="#10231e" stroke="#315c50" stroke-width="1.3" d="M1048.5,-337C1048.5,-337 938.5,-337 938.5,-337 932.5,-337 926.5,-331 926.5,-325 926.5,-325 926.5,-313 926.5,-313 926.5,-307 932.5,-301 938.5,-301 938.5,-301 1048.5,-301 1048.5,-301 1054.5,-301 1060.5,-307 1060.5,-313 1060.5,-313 1060.5,-325 1060.5,-325 1060.5,-331 1054.5,-337 1048.5,-337"/>
<text text-anchor="middle" x="993.5" y="-316.6" font-family="Arial" font-size="10.50" fill="#e8fff7">Detection + correlation</text>
</g>
<!-- collector&#45;&gt;detector -->
<g id="edge2" class="edge">
<title>collector&#45;&gt;detector</title>
<path fill="none" stroke="#71e7b4" stroke-width="1.2" d="M722.5,-368.41C770.55,-359.62 856.79,-343.84 918.89,-332.47"/>
<polygon fill="#71e7b4" stroke="#71e7b4" stroke-width="1.2" points="919.71,-334.88 926.34,-331.11 918.8,-329.93 919.71,-334.88"/>
</g>
<!-- database -->
<g id="node7" class="node">
<title>database</title>
<path fill="#10231e" stroke="#315c50" stroke-width="1.3" d="M1059.5,-97.55C1059.5,-99.45 1029.92,-101 993.5,-101 957.08,-101 927.5,-99.45 927.5,-97.55 927.5,-97.55 927.5,-66.45 927.5,-66.45 927.5,-64.55 957.08,-63 993.5,-63 1029.92,-63 1059.5,-64.55 1059.5,-66.45 1059.5,-66.45 1059.5,-97.55 1059.5,-97.55"/>
<path fill="none" stroke="#315c50" stroke-width="1.3" d="M1059.5,-97.55C1059.5,-95.64 1029.92,-94.09 993.5,-94.09 957.08,-94.09 927.5,-95.64 927.5,-97.55"/>
<text text-anchor="middle" x="993.5" y="-79.6" font-family="Arial" font-size="10.50" fill="#e8fff7">SQLite evidence store</text>
</g>
<!-- detector&#45;&gt;database -->
<g id="edge4" class="edge">
<title>detector&#45;&gt;database</title>
<path fill="none" stroke="#71e7b4" stroke-width="1.2" d="M951.32,-300.89C928.53,-291.1 905,-281 905,-281 905,-281 840.5,-253 840.5,-253 840.5,-253 840.5,-243 840.5,-243 840.5,-243 905,-117 905,-117 905,-117 921.21,-110.59 939.75,-103.26"/>
<polygon fill="#71e7b4" stroke="#71e7b4" stroke-width="1.2" points="940.89,-105.52 946.66,-100.52 939.04,-100.83 940.89,-105.52"/>
<text text-anchor="middle" x="846.5" y="-245.8" font-family="Arial" font-size="9.00" fill="#b9d9ce">events + alerts</text>
</g>
<!-- responder -->
<g id="node5" class="node">
<title>responder</title>
<path fill="#10231e" stroke="#315c50" stroke-width="1.3" d="M748.5,-325C748.5,-325 622.5,-325 622.5,-325 616.5,-325 610.5,-319 610.5,-313 610.5,-313 610.5,-301 610.5,-301 610.5,-295 616.5,-289 622.5,-289 622.5,-289 748.5,-289 748.5,-289 754.5,-289 760.5,-295 760.5,-301 760.5,-301 760.5,-313 760.5,-313 760.5,-319 754.5,-325 748.5,-325"/>
<text text-anchor="middle" x="685.5" y="-304.6" font-family="Arial" font-size="10.50" fill="#e8fff7">Response policy + actions</text>
</g>
<!-- responder&#45;&gt;oscontrol -->
<g id="edge9" class="edge">
<title>responder&#45;&gt;oscontrol</title>
<path fill="none" stroke="#71e7b4" stroke-width="1.2" d="M610.41,-307C560.5,-307 494.78,-307 444.06,-307"/>
<polygon fill="#71e7b4" stroke="#71e7b4" stroke-width="1.2" points="443.89,-304.48 436.69,-307 443.89,-309.52 443.89,-304.48"/>
<text text-anchor="middle" x="531" y="-309.8" font-family="Arial" font-size="9.00" fill="#b9d9ce">approved local action</text>
</g>
<!-- rules -->
<g id="node6" class="node">
<title>rules</title>
<path fill="#10231e" stroke="#315c50" stroke-width="1.3" d="M1051,-237C1051,-237 936,-237 936,-237 930,-237 924,-231 924,-225 924,-225 924,-213 924,-213 924,-207 930,-201 936,-201 936,-201 1051,-201 1051,-201 1057,-201 1063,-207 1063,-213 1063,-213 1063,-225 1063,-225 1063,-231 1057,-237 1051,-237"/>
<text text-anchor="middle" x="993.5" y="-216.6" font-family="Arial" font-size="10.50" fill="#e8fff7">Rules and configuration</text>
</g>
<!-- responder&#45;&gt;rules -->
<g id="edge8" class="edge">
<title>responder&#45;&gt;rules</title>
<path fill="none" stroke="#71e7b4" stroke-width="1.2" d="M760.71,-289.02C821.32,-274.34 897,-256 897,-256 897,-256 917.23,-248.16 939.06,-239.7"/>
<polygon fill="#71e7b4" stroke="#71e7b4" stroke-width="1.2" points="940.07,-242.02 945.87,-237.07 938.24,-237.32 940.07,-242.02"/>
<text text-anchor="middle" x="846.5" y="-281.8" font-family="Arial" font-size="9.00" fill="#b9d9ce">policy read</text>
</g>
<!-- responder&#45;&gt;database -->
<g id="edge11" class="edge">
<title>responder&#45;&gt;database</title>
<path fill="none" stroke="#71e7b4" stroke-width="1.2" d="M701.04,-288.94C730.83,-251.95 796,-171 796,-171 796,-171 897,-129 897,-129 897,-129 905,-117 905,-117 905,-117 921.02,-110.59 939.35,-103.26"/>
<polygon fill="#71e7b4" stroke="#71e7b4" stroke-width="1.2" points="940.44,-105.54 946.19,-100.52 938.57,-100.86 940.44,-105.54"/>
<text text-anchor="middle" x="846.5" y="-173.8" font-family="Arial" font-size="9.00" fill="#b9d9ce">response result</text>
</g>
<!-- quarantine -->
<g id="node8" class="node">
<title>quarantine</title>
<path fill="#10231e" stroke="#315c50" stroke-width="1.3" d="M1043.5,-169C1043.5,-169 943.5,-169 943.5,-169 937.5,-169 931.5,-163 931.5,-157 931.5,-157 931.5,-145 931.5,-145 931.5,-139 937.5,-133 943.5,-133 943.5,-133 1043.5,-133 1043.5,-133 1049.5,-133 1055.5,-139 1055.5,-145 1055.5,-145 1055.5,-157 1055.5,-157 1055.5,-163 1049.5,-169 1043.5,-169"/>
<text text-anchor="middle" x="993.5" y="-148.6" font-family="Arial" font-size="10.50" fill="#e8fff7">Quarantine directory</text>
</g>
<!-- responder&#45;&gt;quarantine -->
<g id="edge10" class="edge">
<title>responder&#45;&gt;quarantine</title>
<path fill="none" stroke="#71e7b4" stroke-width="1.2" d="M710.8,-288.8C743.06,-264.64 796,-225 796,-225 796,-225 897,-189 897,-189 897,-189 905,-185 905,-185 905,-185 920.89,-178.82 939.13,-171.74"/>
<polygon fill="#71e7b4" stroke="#71e7b4" stroke-width="1.2" points="940.13,-174.05 945.93,-169.1 938.31,-169.35 940.13,-174.05"/>
<text text-anchor="middle" x="846.5" y="-227.8" font-family="Arial" font-size="9.00" fill="#b9d9ce">hash + move + metadata</text>
</g>
<!-- rules&#45;&gt;detector -->
<g id="edge3" class="edge">
<title>rules&#45;&gt;detector</title>
<path fill="none" stroke="#71e7b4" stroke-width="1.2" d="M993.5,-237.34C993.5,-252.99 993.5,-275.66 993.5,-293.15"/>
<polygon fill="#71e7b4" stroke="#71e7b4" stroke-width="1.2" points="990.98,-293.57 993.5,-300.77 996.02,-293.57 990.98,-293.57"/>
<text text-anchor="middle" x="985.5" y="-266.8" font-family="Arial" font-size="9.00" fill="#b9d9ce">validated input</text>
</g>
<!-- analyst -->
<g id="node9" class="node">
<title>analyst</title>
<path fill="#10231e" stroke="#315c50" stroke-width="1.3" d="M118,-122C118,-122 28,-122 28,-122 22,-122 16,-116 16,-110 16,-110 16,-98 16,-98 16,-92 22,-86 28,-86 28,-86 118,-86 118,-86 124,-86 130,-92 130,-98 130,-98 130,-110 130,-110 130,-116 124,-122 118,-122"/>
<text text-anchor="middle" x="73" y="-101.6" font-family="Arial" font-size="10.50" fill="#e8fff7">Authorized analyst</text>
</g>
<!-- api -->
<g id="node10" class="node">
<title>api</title>
<path fill="#10231e" stroke="#315c50" stroke-width="1.3" d="M398,-122C398,-122 332,-122 332,-122 326,-122 320,-116 320,-110 320,-110 320,-98 320,-98 320,-92 326,-86 332,-86 332,-86 398,-86 398,-86 404,-86 410,-92 410,-98 410,-98 410,-110 410,-110 410,-116 404,-122 398,-122"/>
<text text-anchor="middle" x="365" y="-101.6" font-family="Arial" font-size="10.50" fill="#e8fff7">FastAPI / CLI</text>
</g>
<!-- analyst&#45;&gt;api -->
<g id="edge5" class="edge">
<title>analyst&#45;&gt;api</title>
<path fill="none" stroke="#71e7b4" stroke-width="1.2" d="M130.26,-104C183.01,-104 261.22,-104 312.4,-104"/>
<polygon fill="#71e7b4" stroke="#71e7b4" stroke-width="1.2" points="312.55,-106.52 319.75,-104 312.55,-101.48 312.55,-106.52"/>
<text text-anchor="middle" x="199.5" y="-106.8" font-family="Arial" font-size="9.00" fill="#b9d9ce">authenticated request</text>
</g>
<!-- api&#45;&gt;responder -->
<g id="edge7" class="edge">
<title>api&#45;&gt;responder</title>
<path fill="none" stroke="#71e7b4" stroke-width="1.2" d="M394.26,-122.01C452.55,-159.16 585.95,-244.19 649.54,-284.72"/>
<polygon fill="#71e7b4" stroke="#71e7b4" stroke-width="1.2" points="648.41,-286.99 655.84,-288.73 651.12,-282.74 648.41,-286.99"/>
<text text-anchor="middle" x="531" y="-237.8" font-family="Arial" font-size="9.00" fill="#b9d9ce">explicit response</text>
</g>
<!-- api&#45;&gt;database -->
<g id="edge6" class="edge">
<title>api&#45;&gt;database</title>
<path fill="none" stroke="#71e7b4" stroke-width="1.2" d="M417.28,-102.2C528.31,-98.3 791.26,-89.07 919.56,-84.56"/>
<polygon fill="#71e7b4" stroke="#71e7b4" stroke-width="1.2" points="417.16,-99.68 410.05,-102.45 417.34,-104.72 417.16,-99.68"/>
<polygon fill="#71e7b4" stroke="#71e7b4" stroke-width="1.2" points="919.95,-87.07 927.06,-84.3 919.78,-82.03 919.95,-87.07"/>
<text text-anchor="middle" x="685.5" y="-98.8" font-family="Arial" font-size="9.00" fill="#b9d9ce">review</text>
</g>
<!-- external -->
<g id="node11" class="node">
<title>external</title>
<path fill="#242b27" stroke="#315c50" stroke-width="1.3" stroke-dasharray="5,2" d="M759,-40C759,-40 612,-40 612,-40 606,-40 600,-34 600,-28 600,-28 600,-12 600,-12 600,-6 606,0 612,0 612,0 759,0 759,0 765,0 771,-6 771,-12 771,-12 771,-28 771,-28 771,-34 765,-40 759,-40"/>
<text text-anchor="middle" x="685.5" y="-23.6" font-family="Arial" font-size="10.50" fill="#e8fff7">External SIEM, SOAR, firewall,</text>
<text text-anchor="middle" x="685.5" y="-11.6" font-family="Arial" font-size="10.50" fill="#e8fff7">or fleet service</text>
</g>
<!-- api&#45;&gt;external -->
<g id="edge12" class="edge">
<title>api&#45;&gt;external</title>
<path fill="none" stroke="#71e7b4" stroke-width="1.2" stroke-dasharray="5,2" d="M410.03,-91.27C444.62,-81.26 487,-69 487,-69 487,-69 544.04,-54.85 596.81,-41.76"/>
<polygon fill="#71e7b4" stroke="#71e7b4" stroke-width="1.2" points="597.5,-44.18 603.88,-40 596.29,-39.29 597.5,-44.18"/>
<text text-anchor="middle" x="531" y="-71.8" font-family="Arial" font-size="9.00" fill="#b9d9ce">planned integration</text>
</g>
</g>
</svg>
